<mxfile host="app.diagrams.net" modified="2023-03-23T18:31:20.573Z" agent="Mozilla/5.0 (Macintosh; Intel Mac OS X 10_15_7) AppleWebKit/605.1.15 (KHTML, like Gecko) Version/16.3 Safari/605.1.15" version="21.1.0" etag="43gNEfs0VM3OCpGSQXt2" type="github">
  <diagram name="Page-1" id="scSwwstcmS04ZqmcMwrd">
    <mxGraphModel>
      <root>
        <mxCell id="0" />
        <mxCell id="1" parent="0" />
      </root>
    </mxGraphModel>
  </diagram>
</mxfile>
